<svg width="688" height="715" viewBox="0 0 688 715" fill="none" xmlns="http://www.w3.org/2000/svg">
<rect x="5" y="-5" width="50.0252" height="197.987" rx="25.0126" transform="matrix(1 0 0 -1 309.6 197.987)" stroke="#0A894B" stroke-width="10"/>
<rect x="5" y="-5" width="47.7199" height="200.596" rx="23.8599" transform="matrix(1 0 0 -1 310.518 704.671)" stroke="#0A894B" stroke-width="10"/>
<rect x="5" y="-5" width="47.7199" height="200.596" rx="23.8599" transform="matrix(1 0 0 -1 221.994 286.825)" stroke="#0A894B" stroke-width="10"/>
<rect x="5" y="-5" width="47.7199" height="200.596" rx="23.8599" transform="matrix(1 0 0 -1 404.086 616.607)" stroke="#0A894B" stroke-width="10"/>
<rect x="5" y="-5" width="47.8672" height="113.798" rx="23.9336" transform="matrix(1 0 0 -1 131.178 286.715)" stroke="#0A894B" stroke-width="10"/>
<rect x="5" y="-5" width="47.8672" height="113.798" rx="23.9336" transform="matrix(1 0 0 -1 492.148 529.809)" stroke="#0A894B" stroke-width="10"/>
<rect width="57.8672" height="234.789" rx="28.9336" transform="matrix(0 -1 -1 0 461.75 385.25)" fill="#1C6642"/>
<rect width="57.7199" height="207.987" rx="28.8599" transform="matrix(0 -1 -1 0 207.986 385.104)" fill="#1C6642"/>
<rect width="57.7199" height="210.596" rx="28.8599" transform="matrix(0 -1 -1 0 688 385.25)" fill="#1C6642"/>
<rect width="57.3929" height="295.502" rx="28.6964" transform="matrix(0 -1 -1 0 373.051 473.473)" fill="#31A86E"/>
<rect width="57.8672" height="288.387" rx="28.9336" transform="matrix(0 -1 -1 0 603.096 296.552)" fill="#31A86E"/>
<rect width="57.8672" height="123.798" rx="28.9336" transform="matrix(0 -1 -1 0 283.879 562.171)" fill="#3EE293"/>
<rect width="57.8672" height="123.798" rx="28.9336" transform="matrix(0 -1 -1 0 521.039 207.854)" fill="#3EE293"/>
</svg>
